<svg width="160" height="160" viewBox="0 0 160 160" fill="none" xmlns="http://www.w3.org/2000/svg">
<rect width="160" height="160" rx="80" fill="white"/>
<path d="M111.072 33.4395C112.822 34.6113 112.971 37.0763 111.482 38.5652L98.6936 51.3541C97.5378 52.5099 95.7447 52.6925 94.2899 51.9472C89.9881 49.7434 85.1129 48.5 79.9473 48.5C62.5503 48.5 48.4473 62.603 48.4473 80C48.4473 85.1656 49.6907 90.0408 51.8945 94.3426C52.6398 95.7974 52.4572 97.5905 51.3013 98.7464L38.5125 111.535C37.0236 113.024 34.5586 112.875 33.3868 111.125C27.4246 102.224 23.9473 91.5181 23.9473 80C23.9473 49.0721 49.0193 24 79.9473 24C91.4654 24 102.171 27.4773 111.072 33.4395Z" fill="#BAB1FF"/>
<path d="M97.4473 80C97.4473 89.665 89.6122 97.5 79.9473 97.5C70.2823 97.5 62.4473 89.665 62.4473 80C62.4473 70.335 70.2823 62.5 79.9473 62.5C89.6122 62.5 97.4473 70.335 97.4473 80Z" fill="#6C47FF"/>
<path d="M111.483 121.435C112.971 122.924 112.822 125.389 111.073 126.56C102.171 132.523 91.4654 136 79.9473 136C68.4291 136 57.7232 132.523 48.822 126.56C47.0726 125.389 46.9231 122.924 48.412 121.435L61.2008 108.646C62.3567 107.49 64.1498 107.307 65.6046 108.053C69.9064 110.257 74.7816 111.5 79.9473 111.5C85.1129 111.5 89.9881 110.257 94.2899 108.053C95.7448 107.307 97.5379 107.49 98.6937 108.646L111.483 121.435Z" fill="#6C47FF"/>
</svg>
