<svg xmlns="http://www.w3.org/2000/svg" width="225" height="225" viewBox="0 0 225 225">
<g>
<path d="M 130.10 220.44 C128.03,221.72 118.57,221.99 115.50,220.85 C109.01,218.44 107.60,215.19 110.59,209.50 C114.40,202.23 115.20,198.17 115.95,182.00 C116.38,172.93 117.26,164.09 117.92,162.37 C119.08,159.32 118.97,159.12 113.01,153.37 C105.46,146.10 101.22,144.40 88.50,143.50 C66.69,141.96 57.37,134.85 55.01,117.96 C53.57,107.71 51.49,101.05 48.61,97.50 L 46.17 94.50 L 42.83 96.40 C35.14,100.78 26.01,107.25 18.68,113.51 C14.37,117.18 10.60,119.93 10.28,119.62 C9.07,118.41 12.16,107.15 15.66,100.03 C20.17,90.85 33.24,77.21 43.00,71.51 C63.18,59.71 74.88,54.63 104.00,44.99 C104.51,44.82 105.01,44.66 105.50,44.50 C116.75,40.77 119.61,39.83 122.27,40.22 C123.28,40.37 124.27,40.72 125.70,41.19 L 130.50 42.76 L 124.84 42.25 C117.54,41.59 110.46,44.68 108.47,49.39 C107.30,52.16 107.36,52.73 109.06,54.55 C110.96,56.59 110.95,56.59 107.47,56.19 C103.25,55.69 101.35,57.09 100.47,61.32 C100.10,63.07 98.72,66.47 97.40,68.88 C94.66,73.87 94.40,76.94 96.40,80.80 C98.41,84.70 100.70,86.52 112.22,93.38 C120.36,98.23 122.57,100.02 122.83,102.00 C123.01,103.38 124.77,105.96 126.75,107.74 L 130.34 110.98 L 133.42 109.07 C135.11,108.01 137.16,106.02 137.97,104.63 C139.34,102.29 139.27,101.92 137.03,99.53 C135.63,98.04 133.02,96.71 130.81,96.35 C127.52,95.83 126.44,94.92 123.00,89.76 C120.80,86.47 119.00,83.24 119.00,82.58 C119.00,81.93 117.67,79.29 116.04,76.73 L 113.09 72.07 L 115.92 72.63 C117.48,72.95 119.71,72.69 120.87,72.07 C123.22,70.81 127.00,64.12 127.00,61.23 C127.00,60.21 127.56,58.61 128.25,57.68 C129.41,56.10 129.77,56.16 133.21,58.50 C139.62,62.86 141.64,63.24 149.12,61.54 C158.59,59.39 168.80,59.55 175.14,61.96 C177.99,63.04 180.69,63.69 181.16,63.40 C182.47,62.59 182.15,58.31 180.50,54.35 C179.11,51.02 179.12,50.86 180.65,52.13 C184.90,55.65 186.41,65.18 183.00,67.00 C181.82,67.63 181.00,69.09 181.00,70.58 C181.00,71.95 180.04,74.96 178.87,77.25 L 176.75 81.42 L 178.87 82.83 C180.38,83.83 181.01,85.30 181.03,87.87 C181.05,89.87 181.72,92.37 182.53,93.44 C184.78,96.42 184.33,98.00 181.22,98.00 C174.37,98.00 171.60,104.70 176.45,109.55 C180.96,114.05 185.84,111.97 189.51,103.99 C190.39,102.07 192.20,98.70 193.54,96.50 C196.18,92.16 196.83,85.23 194.80,83.20 C194.14,82.54 192.45,81.99 191.05,81.97 C188.72,81.94 188.65,81.82 190.25,80.61 C192.39,78.98 192.62,72.23 190.63,69.51 C189.61,68.12 189.50,66.76 190.21,64.20 C190.73,62.31 190.90,59.73 190.58,58.46 C189.77,55.23 185.16,50.00 183.13,50.00 C182.12,50.00 181.43,49.22 181.43,48.09 C181.43,46.49 182.21,46.83 186.15,50.13 C191.23,54.37 193.02,58.17 192.94,64.50 C192.86,71.53 194.04,77.36 196.62,82.65 C198.82,87.16 199.00,88.28 198.07,91.74 C197.48,93.92 195.90,97.23 194.55,99.10 C193.19,100.97 191.37,104.07 190.50,105.99 C189.62,107.90 187.92,110.53 186.71,111.81 C184.81,113.83 183.91,114.06 180.12,113.50 L 175.74 112.84 L 176.35 115.67 C176.69,117.23 177.25,122.78 177.60,128.00 C178.14,136.13 177.93,138.39 176.12,143.72 C174.95,147.14 174.00,150.84 174.00,151.93 C174.00,153.03 173.30,156.00 172.44,158.54 C171.23,162.09 171.14,163.46 172.04,164.55 C172.94,165.63 172.93,167.91 172.02,174.23 C171.37,178.78 170.98,186.10 171.17,190.50 L 171.50 198.50 L 177.00 202.20 C180.02,204.24 185.07,206.87 188.22,208.06 C195.83,210.93 197.20,212.61 194.05,215.16 C191.82,216.97 190.51,217.04 172.59,216.41 C147.24,215.51 145.73,214.69 149.50,204.00 C151.62,198.00 151.37,192.93 148.57,184.67 C147.23,180.73 145.83,174.94 145.46,171.82 L 144.79 166.14 L 149.95 160.82 C155.45,155.16 155.78,153.65 153.08,146.67 L 151.99 143.85 L 146.80 149.53 C140.63,156.28 139.01,159.15 138.98,163.36 C138.94,167.99 137.59,172.54 133.59,181.58 C130.35,188.90 130.00,190.56 129.91,199.08 C129.86,204.26 130.14,211.03 130.54,214.11 C131.03,217.97 130.89,219.95 130.10,220.44 ZM 116.36 152.97 L 119.22 156.23 L 121.71 153.75 C124.06,151.40 124.21,150.57 124.45,138.88 C124.60,131.14 125.28,124.63 126.26,121.50 C127.11,118.75 128.14,115.49 128.53,114.25 C129.04,112.60 128.83,112.00 127.74,112.00 C125.79,112.00 121.29,106.08 120.84,102.95 C120.57,100.98 118.44,99.45 109.78,94.96 C103.89,91.91 97.88,88.31 96.44,86.96 C93.29,84.02 90.00,77.90 90.00,74.97 C90.00,72.11 89.09,72.44 67.36,83.17 L 49.21 92.13 L 52.14 97.82 C54.05,101.51 55.61,106.83 56.60,113.00 C60.05,134.44 65.84,139.28 90.00,140.92 C104.66,141.91 108.02,143.45 116.36,152.97 ZM 119.52 197.09 C120.61,197.51 122.90,197.89 124.61,197.93 C127.72,198.00 127.73,197.98 128.26,191.75 C128.58,188.10 129.89,183.15 131.43,179.83 C135.01,172.15 136.89,163.17 135.15,162.10 C134.18,161.50 134.49,160.57 136.44,158.26 C137.85,156.58 139.00,154.73 139.00,154.15 C139.00,153.56 140.85,151.37 143.10,149.29 C148.12,144.66 151.30,138.59 154.10,128.31 C155.27,124.01 156.45,120.28 156.73,120.00 C157.57,119.15 155.95,130.20 154.42,135.69 C153.09,140.49 153.13,141.25 154.99,145.97 C157.23,151.65 157.66,158.00 155.81,158.00 C154.23,158.00 150.00,162.04 150.00,163.55 C150.00,165.10 158.93,166.28 164.43,165.46 C168.05,164.92 168.83,164.36 169.83,161.59 C170.47,159.81 171.00,156.62 171.00,154.49 C171.00,152.37 172.01,148.58 173.25,146.07 C176.38,139.71 176.30,127.58 173.00,110.75 L 170.50 98.00 L 161.34 98.00 C154.99,98.00 150.23,97.39 145.84,96.01 C142.35,94.92 139.16,94.02 138.75,94.01 C137.13,93.98 138.12,98.50 140.24,100.76 L 142.48 103.14 L 136.83 108.49 C131.52,113.50 131.07,114.31 129.45,121.57 C128.15,127.40 127.86,132.01 128.25,140.29 L 128.77 151.28 L 125.43 155.66 C120.61,161.97 118.49,171.11 117.84,188.41 C117.57,195.51 117.74,196.39 119.52,197.09 ZM 14.00 110.29 C14.00,113.06 14.14,113.19 15.75,111.83 C22.78,105.88 28.47,101.53 34.50,97.47 C41.36,92.87 90.38,68.00 92.60,68.00 C93.22,68.00 94.74,65.24 95.97,61.88 C97.69,57.13 98.82,55.52 100.94,54.72 C102.49,54.13 104.15,52.45 104.75,50.84 C105.73,48.26 105.63,48.00 103.66,48.01 C100.45,48.04 79.95,55.14 68.36,60.24 C42.59,71.59 24.92,85.44 17.64,100.00 C15.64,104.00 14.00,108.63 14.00,110.29 ZM 148.50 94.67 C154.42,96.82 164.95,97.66 169.75,96.37 C171.70,95.85 172.00,95.11 172.00,90.80 C172.00,87.77 173.03,83.27 174.66,79.20 C176.12,75.55 177.35,71.03 177.41,69.15 C177.49,66.05 177.14,65.61 173.50,64.30 C170.46,63.21 166.97,63.01 159.00,63.51 C139.35,64.73 138.88,64.70 134.27,61.73 C129.10,58.39 129.00,58.39 129.00,61.53 C129.00,62.92 128.32,65.70 127.48,67.71 C126.00,71.25 126.03,71.42 128.73,74.30 C132.03,77.81 137.18,80.21 139.69,79.40 C141.04,78.96 140.90,79.30 139.17,80.72 C137.19,82.34 136.95,83.19 137.54,86.34 C138.31,90.49 139.57,91.44 148.50,94.67 ZM 177.50 214.78 C186.15,215.69 192.50,214.99 192.50,213.14 C192.50,212.39 190.02,210.86 187.00,209.75 C183.98,208.63 180.38,206.94 179.00,205.99 C177.62,205.04 174.59,203.29 172.25,202.11 L 168.00 199.96 L 168.02 192.23 C168.03,187.98 168.62,180.64 169.33,175.92 L 170.62 167.34 L 158.24 167.42 C157.08,167.43 156.02,167.43 155.06,167.43 C149.63,167.44 147.30,167.44 146.63,168.50 C146.13,169.29 146.56,170.68 147.32,173.11 C147.50,173.68 147.70,174.31 147.91,175.00 C153.46,193.54 153.95,197.59 151.42,203.91 C150.55,206.08 149.99,208.90 150.17,210.18 C150.48,212.37 151.06,212.54 160.50,213.27 C166.00,213.70 173.65,214.37 177.50,214.78 ZM 164.04 36.92 C164.34,39.11 164.05,40.48 163.25,40.75 C162.37,41.04 162.00,39.81 162.00,36.58 C162.00,31.83 161.13,30.93 159.00,33.50 C158.14,34.54 155.84,35.00 151.53,35.00 C146.56,35.00 144.94,34.59 143.48,32.98 C142.08,31.43 141.45,31.25 140.83,32.23 C140.32,33.01 140.04,32.16 140.09,30.00 C140.14,28.08 140.10,22.80 140.01,18.29 C139.80,8.04 140.31,6.44 144.19,5.08 C149.45,3.25 159.42,3.71 162.14,5.91 C164.38,7.73 164.48,8.31 164.08,17.16 C163.51,29.99 163.51,32.97 164.04,36.92 ZM 146.40 33.23 C148.65,34.73 156.64,34.06 158.30,32.22 C160.57,29.71 162.74,12.92 161.22,9.59 C159.90,6.70 155.15,5.45 148.72,6.31 C142.63,7.13 141.73,8.91 142.27,19.06 C142.71,27.22 143.99,31.62 146.40,33.23 ZM 113.75 217.43 C117.45,219.44 127.87,219.51 128.62,217.54 C128.93,216.73 128.42,213.75 127.47,210.92 C126.21,207.13 126.07,205.58 126.91,205.05 C128.17,204.28 127.33,200.97 125.57,199.77 C123.24,198.17 118.12,198.98 116.57,201.21 C115.60,202.59 115.37,203.77 115.96,204.36 C116.54,204.94 115.78,206.33 113.95,208.05 C110.10,211.64 110.02,215.40 113.75,217.43 ZM 126.10 91.30 C129.25,95.12 133.30,96.26 134.32,93.61 C135.35,90.93 132.58,83.09 130.00,81.36 C128.62,80.45 126.29,78.58 124.81,77.22 C123.29,75.81 121.46,74.99 120.61,75.32 C119.29,75.83 119.35,76.64 121.07,81.75 C122.16,84.97 124.42,89.27 126.10,91.30 ZM 174.10 94.03 C174.00,97.55 174.00,97.55 178.00,97.17 C180.20,96.96 182.00,96.62 182.00,96.42 C182.00,96.22 181.12,94.59 180.03,92.81 C178.79,90.77 178.29,88.70 178.67,87.19 C179.15,85.25 178.92,84.87 177.43,85.16 C175.40,85.55 174.25,88.61 174.10,94.03 ZM 142.97 39.25 C143.01,40.26 141.96,40.06 139.22,38.55 C137.20,37.43 137.12,37.15 138.50,36.00 C139.81,34.92 140.30,35.02 141.50,36.60 C142.29,37.65 142.95,38.84 142.97,39.25 Z" fill="rgb(4,10,3)"/>
<path d="M 58.19 120.88 C57.59,118.54 57.07,115.92 56.60,113.00 C55.61,106.83 54.05,101.51 52.14,97.82 L 49.21 92.13 L 67.36 83.17 C89.09,72.44 90.00,72.11 90.00,74.97 C90.00,77.10 91.73,80.91 93.89,83.96 C92.95,82.88 92.16,81.78 91.50,80.63 C90.63,79.12 89.38,79.99 82.00,87.24 C71.08,97.96 64.51,106.05 60.89,113.22 C59.06,116.84 58.17,118.87 58.19,120.88 ZM 116.36 152.97 C108.02,143.45 104.66,141.91 90.00,140.92 C84.67,140.56 80.23,140.04 76.52,139.22 C79.24,139.62 82.90,139.91 86.11,139.93 C94.41,140.00 95.08,139.83 104.02,135.38 C112.76,131.04 115.55,129.03 123.54,121.36 C125.55,119.43 127.06,117.55 127.98,115.99 C127.50,117.53 126.84,119.63 126.26,121.50 C125.28,124.63 124.60,131.14 124.45,138.88 C124.21,150.57 124.06,151.40 121.71,153.75 L 119.22 156.23 ZM 143.24 92.64 C138.99,90.79 138.12,89.48 137.54,86.34 C136.95,83.19 137.19,82.34 139.17,80.72 C140.90,79.30 141.04,78.96 139.69,79.40 C137.18,80.21 132.03,77.81 128.73,74.30 C126.03,71.42 126.00,71.25 127.48,67.71 C128.32,65.70 129.00,62.92 129.00,61.53 C129.00,58.39 129.10,58.39 134.27,61.73 C137.99,64.12 139.02,64.61 149.62,64.06 C147.51,64.26 145.30,64.48 143.00,64.75 C136.96,65.45 136.48,65.68 136.20,68.12 C136.00,69.79 137.05,72.45 139.07,75.44 C141.55,79.12 142.35,81.54 142.75,86.54 ZM 154.57 126.61 C154.59,126.53 154.61,126.44 154.63,126.35 C155.59,122.31 156.73,119.00 157.18,119.00 C157.63,119.00 158.02,121.81 158.05,125.25 C158.08,128.69 158.92,136.90 159.92,143.50 L 161.75 155.50 L 159.37 159.68 C158.07,161.98 157.00,164.11 157.00,164.43 C157.00,164.74 159.61,165.00 162.80,165.00 C165.07,165.00 166.46,164.99 167.38,164.76 C166.67,165.06 165.74,165.26 164.43,165.46 C158.93,166.28 150.00,165.10 150.00,163.55 C150.00,162.04 154.23,158.00 155.81,158.00 C157.66,158.00 157.23,151.65 154.99,145.97 C153.13,141.25 153.09,140.49 154.42,135.69 C155.95,130.20 157.57,119.15 156.73,120.00 C156.49,120.24 155.57,123.07 154.57,126.61 ZM 164.04 36.92 C163.95,36.28 163.88,35.67 163.82,35.04 C163.85,35.20 163.87,35.35 163.90,35.50 C164.71,39.83 164.61,40.22 162.38,41.23 C158.51,43.00 159.59,43.51 167.00,43.39 C170.85,43.34 174.00,43.70 174.00,44.21 C174.00,44.71 174.79,45.03 175.75,44.91 C177.66,44.67 179.58,45.32 182.50,47.36 C181.66,46.92 181.43,47.22 181.43,48.09 C181.43,49.22 182.12,50.00 183.13,50.00 C184.09,50.00 185.64,51.18 187.09,52.77 C185.52,51.16 183.75,50.00 182.44,50.00 L 180.06 50.00 L 181.82 53.33 C181.46,52.88 181.07,52.47 180.65,52.13 C179.12,50.86 179.11,51.02 180.50,54.35 C181.71,57.25 182.20,60.32 181.86,62.08 C182.19,59.72 180.93,54.87 178.97,51.91 C177.65,49.93 174.63,47.50 171.76,46.13 C167.14,43.92 166.45,43.84 160.98,45.00 C156.58,45.94 154.34,45.97 151.92,45.12 C150.15,44.50 146.97,44.00 144.85,44.00 C142.73,44.00 141.00,43.55 141.00,43.00 C141.00,42.45 141.79,41.99 142.75,41.98 C144.17,41.96 144.03,41.58 142.00,40.00 C141.86,39.89 141.72,39.78 141.57,39.68 C142.58,40.04 143.00,39.89 142.97,39.25 C142.95,38.90 142.47,37.97 141.83,37.06 C141.87,37.10 141.91,37.15 141.95,37.20 C144.61,40.60 155.67,43.78 158.86,42.08 C160.18,41.37 161.00,39.96 161.00,38.41 C161.00,36.82 160.59,36.14 159.89,36.57 C155.59,39.22 146.31,37.48 143.11,33.41 C142.27,32.34 141.65,31.80 141.22,31.78 C141.74,31.38 142.36,31.74 143.48,32.98 C144.94,34.59 146.56,35.00 151.53,35.00 C155.84,35.00 158.14,34.54 159.00,33.50 C161.13,30.93 162.00,31.83 162.00,36.58 C162.00,39.81 162.37,41.04 163.25,40.75 C164.05,40.48 164.34,39.11 164.04,36.92 ZM 153.14 97.56 C151.08,97.36 149.27,97.10 148.08,96.83 C145.29,96.19 142.77,95.90 142.48,96.19 C142.19,96.48 141.89,98.36 141.81,100.36 C141.79,101.04 141.72,101.63 141.59,102.19 L 140.24 100.76 C138.12,98.50 137.13,93.98 138.75,94.01 C139.16,94.02 142.35,94.92 145.84,96.01 C148.12,96.73 150.50,97.24 153.14,97.56 ZM 180.46 73.29 C180.06,76.40 180.30,79.81 181.41,81.50 C182.37,82.97 182.60,84.13 181.99,84.51 C181.06,85.08 180.85,87.55 181.23,89.86 C181.11,89.19 181.04,88.50 181.03,87.87 C181.01,85.30 180.38,83.83 178.87,82.83 L 176.75 81.42 L 178.87 77.25 C179.50,76.01 180.07,74.57 180.46,73.29 ZM 164.11 213.56 C162.85,213.46 161.63,213.36 160.50,213.27 C151.06,212.54 150.48,212.37 150.17,210.18 C149.99,208.90 150.55,206.08 151.42,203.91 C151.96,202.55 152.37,201.29 152.61,199.98 C152.43,201.00 152.17,202.03 151.84,203.14 C150.99,205.96 150.98,207.65 151.77,209.40 C152.66,211.35 155.63,212.48 164.11,213.56 ZM 192.50 213.14 C192.50,214.77 187.61,215.50 180.57,215.04 C190.62,215.30 192.44,212.82 184.43,208.72 C185.29,209.09 186.17,209.44 187.00,209.75 C190.02,210.86 192.50,212.39 192.50,213.14 ZM 164.23 10.11 C164.68,12.77 164.51,16.53 163.97,21.81 C163.92,22.31 163.87,22.81 163.83,23.31 C163.89,21.55 163.98,19.53 164.08,17.16 C164.24,13.78 164.31,11.61 164.23,10.11 ZM 184.80 61.01 C185.27,63.87 184.72,66.08 183.12,66.94 C182.22,67.42 181.49,68.81 181.00,70.58 L 181.00 70.58 C181.00,69.09 181.82,67.63 183.00,67.00 C184.55,66.17 185.08,63.74 184.80,61.01 ZM 144.78 147.62 C147.66,144.36 150.23,139.78 152.24,134.35 C150.21,140.12 147.87,144.27 144.78,147.62 ZM 170.16 201.05 L 172.25 202.11 C174.25,203.12 176.77,204.55 178.32,205.54 C176.71,204.68 175.09,203.80 173.75,203.05 ZM 154.63 4.01 C158.42,4.10 160.92,4.63 162.45,6.17 C162.35,6.09 162.25,6.00 162.14,5.91 C160.85,4.87 157.91,4.21 154.63,4.01 ZM 162.87 63.31 C168.20,63.11 171.01,63.40 173.50,64.30 C171.52,63.59 167.86,63.26 162.87,63.31 ZM 67.18 135.60 C64.30,133.72 62.20,131.19 60.59,127.79 C62.27,131.12 64.42,133.68 67.18,135.60 ZM 137.59 37.02 C137.49,37.36 137.75,37.66 138.41,38.07 C138.27,38.04 138.14,38.02 138.04,38.02 C137.07,38.01 136.90,37.81 137.59,37.02 ZM 140.16 10.44 C140.24,9.33 140.34,8.50 140.46,8.12 C140.65,7.52 141.05,6.98 141.63,6.50 C140.82,7.31 140.38,8.48 140.16,10.44 ZM 152.88 197.41 C152.99,193.00 151.52,187.07 147.91,175.00 C151.63,187.43 153.02,193.00 152.88,197.41 ZM 169.75 96.37 C166.99,97.11 162.32,97.15 157.74,96.63 C162.35,97.11 167.11,97.08 169.75,96.37 ZM 128.64 112.32 C128.42,112.11 128.08,112.00 127.62,112.00 C126.66,112.00 124.98,110.38 123.53,108.39 C125.00,110.38 126.72,112.00 127.74,112.00 C128.18,112.00 128.48,112.10 128.64,112.32 ZM 181.23 63.36 C181.20,63.37 181.18,63.39 181.16,63.40 C180.69,63.69 177.99,63.04 175.14,61.96 C177.91,63.02 180.60,63.63 181.23,63.36 ZM 105.89 92.88 C107.16,93.58 108.47,94.29 109.78,94.96 C118.30,99.38 120.50,100.93 120.83,102.86 C120.50,100.93 118.27,99.36 109.50,94.82 C108.22,94.15 107.02,93.51 105.89,92.88 ZM 138.31 107.09 C137.77,107.63 137.15,108.22 136.43,108.89 C135.95,109.34 135.51,109.75 135.11,110.14 C135.62,109.64 136.19,109.09 136.83,108.49 ZM 140.12 35.32 C139.79,35.22 139.46,35.32 139.05,35.59 C139.45,35.27 139.77,35.17 140.12,35.32 ZM 169.81 161.64 C170.47,159.81 171.00,156.61 171.00,154.49 C171.00,156.62 170.47,159.81 169.83,161.59 C169.82,161.61 169.82,161.63 169.81,161.64 ZM 168.00 199.85 L 168.00 199.85 L 168.02 192.23 Z" fill="rgb(118,135,80)"/>
<path d="M 58.19 120.88 C58.17,118.87 59.06,116.84 60.89,113.22 C64.51,106.05 71.08,97.96 82.00,87.24 C89.38,79.99 90.63,79.12 91.50,80.63 C92.16,81.78 92.95,82.88 93.89,83.96 C94.70,85.11 95.58,86.15 96.44,86.96 C97.56,88.01 101.45,90.42 105.89,92.88 C107.02,93.51 108.22,94.15 109.50,94.82 C118.27,99.36 120.50,100.93 120.83,102.86 C120.84,102.89 120.84,102.92 120.84,102.95 C121.06,104.44 122.19,106.57 123.53,108.39 C124.98,110.38 126.66,112.00 127.62,112.00 C128.08,112.00 128.42,112.11 128.64,112.32 C128.88,112.66 128.83,113.27 128.53,114.25 C128.40,114.65 128.21,115.26 127.98,115.99 C127.06,117.55 125.55,119.43 123.54,121.36 C115.55,129.03 112.76,131.04 104.02,135.38 C95.08,139.83 94.41,140.00 86.11,139.93 C82.90,139.91 79.24,139.62 76.52,139.22 C72.70,138.38 69.65,137.23 67.18,135.60 L 67.18 135.60 C64.42,133.68 62.27,131.12 60.59,127.79 C59.64,125.81 58.86,123.52 58.19,120.88 ZM 14.00 110.29 C14.00,108.63 15.64,104.00 17.64,100.00 C24.92,85.44 42.59,71.59 68.36,60.24 C79.95,55.14 100.45,48.04 103.66,48.01 C105.63,48.00 105.73,48.26 104.75,50.84 C104.15,52.45 102.49,54.13 100.94,54.72 C98.82,55.52 97.69,57.13 95.97,61.88 C94.74,65.24 93.22,68.00 92.60,68.00 C90.38,68.00 41.36,92.87 34.50,97.47 C28.47,101.53 22.78,105.88 15.75,111.83 C14.14,113.19 14.00,113.06 14.00,110.29 ZM 177.50 214.78 C174.44,214.46 168.98,213.96 164.11,213.56 C155.63,212.48 152.66,211.35 151.77,209.40 C150.98,207.65 150.99,205.96 151.84,203.14 C152.17,202.03 152.43,201.00 152.61,199.98 C152.76,199.16 152.85,198.32 152.88,197.41 C153.02,193.00 151.63,187.43 147.91,175.00 C147.70,174.31 147.50,173.68 147.32,173.11 C146.56,170.68 146.13,169.29 146.63,168.50 C147.30,167.44 149.63,167.44 155.06,167.43 C156.02,167.43 157.08,167.43 158.24,167.42 L 170.62 167.34 L 169.33 175.92 C168.62,180.64 168.03,187.98 168.02,192.23 L 168.00 199.85 L 168.00 199.85 L 168.00 199.96 L 170.16 201.05 L 173.75 203.05 C175.09,203.80 176.71,204.68 178.32,205.54 C178.57,205.70 178.80,205.85 179.00,205.99 C180.00,206.68 182.16,207.76 184.43,208.72 C192.44,212.82 190.62,215.30 180.57,215.04 C179.58,214.98 178.56,214.89 177.50,214.78 ZM 126.10 91.30 C124.42,89.27 122.16,84.97 121.07,81.75 C119.35,76.64 119.29,75.83 120.61,75.32 C121.46,74.99 123.29,75.81 124.81,77.22 C126.29,78.58 128.62,80.45 130.00,81.36 C132.58,83.09 135.35,90.93 134.32,93.61 C133.30,96.26 129.25,95.12 126.10,91.30 ZM 137.59 37.02 C136.90,37.81 137.07,38.01 138.04,38.02 C138.14,38.02 138.27,38.04 138.41,38.07 C138.63,38.21 138.90,38.37 139.22,38.55 C140.22,39.10 140.99,39.47 141.57,39.68 C141.72,39.78 141.86,39.89 142.00,40.00 C144.03,41.58 144.17,41.96 142.75,41.98 C141.79,41.99 141.00,42.45 141.00,43.00 C141.00,43.55 142.73,44.00 144.85,44.00 C146.97,44.00 150.15,44.50 151.92,45.12 C151.94,45.13 151.96,45.14 151.99,45.14 C149.68,44.73 144.94,44.21 140.00,43.85 C133.68,43.40 126.37,42.75 123.77,42.41 C118.63,41.75 113.38,43.80 110.37,46.64 C113.47,43.54 119.08,41.73 124.84,42.25 L 130.50 42.76 L 125.70 41.19 C124.27,40.72 123.28,40.37 122.27,40.22 C120.30,39.93 118.22,40.37 112.72,42.13 C112.88,42.06 113.00,42.00 113.10,41.95 C114.28,41.32 118.90,40.14 123.37,39.34 C136.81,36.94 137.45,36.79 138.76,35.75 C138.89,35.64 139.02,35.56 139.16,35.50 C139.12,35.53 139.08,35.56 139.05,35.59 C138.88,35.70 138.70,35.83 138.50,36.00 C137.98,36.43 137.67,36.74 137.59,37.02 ZM 164.15 36.90 C164.68,39.12 165.34,39.59 167.19,39.81 C168.64,39.98 171.03,41.23 172.50,42.58 C173.85,43.84 175.43,44.81 176.17,44.87 C176.03,44.88 175.89,44.89 175.75,44.91 C174.79,45.03 174.00,44.71 174.00,44.21 C174.00,43.70 170.85,43.34 167.00,43.39 C159.59,43.51 158.51,43.00 162.38,41.23 C164.34,40.34 164.65,39.93 164.15,36.90 ZM 91.60 49.20 C75.45,54.83 65.21,59.23 53.30,65.69 C66.27,58.61 76.74,54.13 91.60,49.20 ZM 107.82 51.13 C107.71,52.32 108.08,53.50 109.06,54.55 C107.79,53.19 107.44,52.53 107.82,51.13 ZM 176.35 44.86 C177.44,44.70 178.84,45.12 180.67,46.19 C178.98,45.22 177.64,44.83 176.35,44.86 ZM 148.32 40.94 C152.34,42.37 156.99,43.08 158.86,42.08 C156.97,43.08 152.34,42.38 148.32,40.94 ZM 164.23 10.11 L 164.23 10.09 C164.68,12.74 164.52,16.48 163.98,21.72 C164.52,16.49 164.68,12.75 164.23,10.11 ZM 163.82 23.38 L 163.83 23.31 C163.87,22.81 163.92,22.31 163.97,21.81 C163.92,22.32 163.87,22.84 163.82,23.38 ZM 153.84 45.61 C153.88,45.61 153.93,45.62 153.97,45.63 C153.92,45.62 153.88,45.61 153.84,45.61 Z" fill="rgb(145,207,5)"/>
<path d="M 0.00 112.50 L 0.00 0.00 L 112.50 0.00 L 225.00 0.00 L 225.00 112.50 L 225.00 225.00 L 112.50 225.00 L 0.00 225.00 L 0.00 112.50 ZM 130.10 220.44 C130.89,219.95 131.03,217.97 130.54,214.11 C130.14,211.03 129.86,204.26 129.91,199.08 C130.00,190.56 130.35,188.90 133.59,181.58 C137.59,172.54 138.94,167.99 138.98,163.36 C139.01,159.15 140.63,156.28 146.80,149.53 L 151.99 143.85 L 153.08 146.67 C155.78,153.65 155.45,155.16 149.95,160.82 L 144.79 166.14 L 145.46 171.82 C145.83,174.94 147.23,180.73 148.57,184.67 C151.37,192.93 151.62,198.00 149.50,204.00 C145.73,214.69 147.24,215.51 172.59,216.41 C190.51,217.04 191.82,216.97 194.05,215.16 C197.20,212.61 195.83,210.93 188.22,208.06 C185.07,206.87 180.02,204.24 177.00,202.20 L 171.50 198.50 L 171.17 190.50 C170.98,186.10 171.37,178.78 172.02,174.23 C172.93,167.91 172.94,165.63 172.04,164.55 C171.14,163.46 171.23,162.09 172.44,158.54 C173.30,156.00 174.00,153.03 174.00,151.93 C174.00,150.84 174.95,147.14 176.12,143.72 C177.93,138.39 178.14,136.13 177.60,128.00 C177.25,122.78 176.69,117.23 176.35,115.67 L 175.74 112.84 L 180.12 113.50 C183.91,114.06 184.81,113.83 186.71,111.81 C187.92,110.53 189.62,107.90 190.50,105.99 C191.37,104.07 193.19,100.97 194.55,99.10 C195.90,97.23 197.48,93.92 198.07,91.74 C199.00,88.28 198.82,87.16 196.62,82.65 C194.04,77.36 192.86,71.53 192.94,64.50 C193.02,58.16 191.23,54.37 186.19,50.21 C181.30,46.17 178.32,44.56 176.33,44.87 C175.69,44.97 173.96,43.94 172.50,42.58 C171.03,41.23 168.64,39.98 167.19,39.81 C164.91,39.54 164.44,38.88 163.80,35.09 C163.39,32.66 163.47,26.65 163.98,21.72 C165.54,6.62 163.98,4.00 153.43,4.00 C146.00,4.00 141.29,5.50 140.46,8.12 C140.12,9.19 139.92,13.77 140.01,18.29 C140.10,22.80 140.17,28.08 140.16,30.00 C140.15,31.92 140.37,32.93 140.66,32.23 C141.02,31.36 141.79,31.73 143.11,33.41 C146.31,37.48 155.59,39.22 159.89,36.57 C160.59,36.14 161.00,36.82 161.00,38.41 C161.00,39.96 160.18,41.37 158.86,42.08 C155.70,43.76 144.62,40.60 141.99,37.26 C140.57,35.45 139.66,35.03 138.76,35.75 C137.45,36.79 136.81,36.94 123.37,39.34 C118.90,40.14 114.28,41.32 113.10,41.95 C111.92,42.58 106.13,44.59 100.23,46.43 C76.32,53.87 64.00,59.26 43.00,71.51 C33.25,77.20 20.17,90.84 15.66,100.03 C12.16,107.15 9.07,118.41 10.28,119.62 C10.60,119.93 14.37,117.18 18.68,113.51 C26.01,107.25 35.14,100.78 42.83,96.40 L 46.17 94.50 L 48.61 97.50 C51.49,101.05 53.57,107.71 55.01,117.96 C57.37,134.85 66.69,141.96 88.50,143.50 C101.22,144.40 105.46,146.10 113.01,153.37 C118.97,159.12 119.08,159.32 117.92,162.37 C117.26,164.09 116.38,172.93 115.95,182.00 C115.20,198.17 114.40,202.23 110.59,209.50 C107.60,215.19 109.01,218.44 115.50,220.85 C118.57,221.99 128.03,221.72 130.10,220.44 ZM 113.75 217.43 C110.02,215.40 110.10,211.64 113.95,208.05 C115.78,206.33 116.54,204.94 115.96,204.36 C115.37,203.77 115.60,202.59 116.57,201.21 C118.12,198.98 123.24,198.17 125.57,199.77 C127.33,200.97 128.17,204.28 126.91,205.05 C126.07,205.58 126.21,207.13 127.47,210.92 C128.42,213.75 128.93,216.73 128.62,217.54 C127.87,219.51 117.45,219.44 113.75,217.43 ZM 119.52 197.09 C117.74,196.39 117.57,195.51 117.84,188.41 C118.49,171.11 120.61,161.97 125.43,155.66 L 128.77 151.28 L 128.25 140.29 C127.86,131.99 128.15,127.41 129.46,121.54 C131.06,114.32 131.56,113.42 136.43,108.89 C140.79,104.83 141.70,103.39 141.81,100.36 C141.89,98.36 142.19,96.48 142.48,96.19 C142.77,95.90 145.29,96.19 148.08,96.83 C150.87,97.47 157.06,98.00 161.83,98.00 L 170.50 98.00 L 173.00 110.75 C176.30,127.58 176.38,139.71 173.25,146.07 C172.01,148.58 171.00,152.37 171.00,154.49 C171.00,156.62 170.46,159.85 169.80,161.68 C168.63,164.92 168.46,165.00 162.80,165.00 C159.61,165.00 157.00,164.74 157.00,164.43 C157.00,164.11 158.07,161.98 159.37,159.68 L 161.75 155.50 L 159.92 143.50 C158.92,136.90 158.08,128.69 158.05,125.25 C158.02,121.81 157.63,119.00 157.18,119.00 C156.73,119.00 155.59,122.31 154.63,126.35 C152.26,136.42 148.07,144.77 143.14,149.29 C140.86,151.37 139.00,153.56 139.00,154.15 C139.00,154.73 137.85,156.58 136.44,158.26 C134.49,160.57 134.18,161.50 135.15,162.10 C136.89,163.17 135.01,172.15 131.43,179.83 C129.89,183.15 128.58,188.10 128.26,191.75 C127.73,197.98 127.72,198.00 124.61,197.93 C122.90,197.89 120.61,197.51 119.52,197.09 ZM 176.45 109.55 C171.60,104.70 174.37,98.00 181.22,98.00 C184.33,98.00 184.78,96.42 182.53,93.44 C180.86,91.23 180.51,85.42 181.99,84.51 C182.60,84.13 182.37,82.97 181.41,81.50 C179.25,78.20 180.40,68.39 183.12,66.94 C185.78,65.51 185.53,60.30 182.53,54.65 L 180.06 50.00 L 182.44 50.00 C185.08,50.00 189.65,54.74 190.58,58.46 C190.90,59.73 190.73,62.31 190.21,64.20 C189.50,66.76 189.61,68.12 190.63,69.51 C192.62,72.23 192.39,78.98 190.25,80.61 C188.65,81.82 188.72,81.94 191.05,81.97 C192.45,81.99 194.14,82.54 194.80,83.20 C196.83,85.23 196.18,92.16 193.54,96.50 C192.20,98.70 190.39,102.07 189.51,103.99 C185.84,111.97 180.96,114.05 176.45,109.55 ZM 126.75 107.74 C124.77,105.96 123.01,103.38 122.83,102.00 C122.57,100.02 120.36,98.23 112.22,93.38 C100.70,86.52 98.41,84.70 96.40,80.80 C94.40,76.94 94.66,73.87 97.40,68.88 C98.72,66.47 100.10,63.07 100.47,61.32 C101.35,57.09 103.25,55.69 107.47,56.19 C110.95,56.59 110.96,56.59 109.06,54.55 C104.24,49.37 114.18,41.17 123.77,42.41 C126.37,42.75 133.68,43.40 140.00,43.85 C146.32,44.30 152.31,45.03 153.30,45.46 C154.29,45.90 157.74,45.69 160.96,45.01 C166.45,43.84 167.14,43.91 171.76,46.13 C174.63,47.50 177.65,49.93 178.97,51.91 C181.44,55.64 182.80,62.39 181.27,63.33 C180.74,63.66 177.99,63.04 175.14,61.96 C168.80,59.55 158.59,59.39 149.12,61.54 C141.64,63.24 139.62,62.86 133.21,58.50 C129.77,56.16 129.41,56.10 128.25,57.68 C127.56,58.61 127.00,60.21 127.00,61.23 C127.00,64.12 123.22,70.81 120.87,72.07 C119.71,72.69 117.48,72.95 115.92,72.63 L 113.09 72.07 L 116.04 76.73 C117.67,79.29 119.00,81.93 119.00,82.58 C119.00,83.24 120.80,86.47 123.00,89.76 C126.44,94.92 127.52,95.83 130.81,96.35 C133.02,96.71 135.63,98.04 137.03,99.53 C139.27,101.92 139.34,102.29 137.97,104.63 C137.16,106.02 135.11,108.01 133.42,109.07 L 130.34 110.98 L 126.75 107.74 ZM 174.10 94.03 C174.25,88.61 175.40,85.55 177.43,85.16 C178.92,84.87 179.15,85.25 178.67,87.19 C178.29,88.70 178.79,90.77 180.03,92.81 C181.12,94.59 182.00,96.22 182.00,96.42 C182.00,96.62 180.20,96.96 178.00,97.17 C174.00,97.55 174.00,97.55 174.10,94.03 ZM 148.88 94.88 L 143.27 92.92 L 142.75 86.54 C142.35,81.54 141.55,79.12 139.07,75.44 C137.05,72.45 136.00,69.79 136.20,68.12 C136.48,65.68 136.96,65.45 143.00,64.75 C158.19,63.00 169.43,62.83 173.50,64.30 C177.14,65.61 177.49,66.05 177.41,69.15 C177.35,71.03 176.12,75.55 174.66,79.20 C173.03,83.27 172.00,87.77 172.00,90.80 C172.00,95.11 171.70,95.85 169.75,96.37 C165.22,97.58 154.41,96.81 148.88,94.88 ZM 146.40 33.23 C143.99,31.62 142.71,27.22 142.27,19.06 C141.73,8.91 142.63,7.13 148.72,6.31 C155.15,5.45 159.90,6.70 161.22,9.59 C162.74,12.92 160.57,29.71 158.30,32.22 C156.64,34.06 148.65,34.73 146.40,33.23 Z" fill="rgb(252,252,251)"/>
</g>
</svg>